<svg width="144" height="145" viewBox="0 0 144 145" fill="none" xmlns="http://www.w3.org/2000/svg">
<path fill-rule="evenodd" clip-rule="evenodd" d="M50.2628 134.8C71.3573 134.8 89.417 123.076 96.8726 106.456C96.9638 106.254 66.9395 114.259 67.8968 111.429C68.3243 110.165 86.7293 103.442 100.139 95.5996C107.846 91.092 111.395 81.55 111.395 81.55C111.395 81.55 98.4102 87.8542 91.8461 89.4534C78.6184 92.6765 66.9743 92.3295 66.9743 91.9937C66.9743 91.2675 86.3089 87.5938 113.182 71.218C125.822 63.5154 129.255 50.2477 129.255 50.2477C129.255 50.2477 115.358 58.5255 106.957 61.2584C87.0348 67.7392 68.8542 69.6922 68.8542 68.8153C68.8542 66.9377 84.8537 62.5381 101.817 54.3185C110.637 50.0449 118.275 44.4616 127.127 38.2524C141.611 28.0934 144 10 144 10C144 10 129.714 19.2138 122.743 22.2736C93.9772 34.8993 68.5769 41.5222 50.2628 42.956C22.617 45.1205 0 64.4095 0 89.4534C0 114.498 22.5033 134.8 50.2628 134.8Z" fill="#89AAE3"/>
</svg>
