<svg width="129" height="143" viewBox="0 0 129 143" fill="none" xmlns="http://www.w3.org/2000/svg">
<path fill-rule="evenodd" clip-rule="evenodd" d="M20.595 122.995C20.1007 122.53 19.6119 122.056 19.1288 121.573C-6.37626 96.0682 -6.37625 54.7163 19.1288 29.2114C44.6337 3.70626 125.903 2 125.903 2C125.903 2 136.996 96.0682 111.491 121.573C88.8389 144.225 53.6877 146.759 28.2393 129.176L48.7447 104.012L81.5244 96.9347L54.7665 94.2597L71.7715 76.9454L91.1282 72.705L75.8221 68.1721L91.1282 40.5601L69.3567 64.9805L60.9493 53.1165L63.9089 72.705L48.7447 89.8L41.7154 68.1718V96.9347L20.595 122.995Z" fill="#63BC5A"/>
</svg>
