<svg width="144" height="145" viewBox="0 0 144 145" fill="none" xmlns="http://www.w3.org/2000/svg">
<path fill-rule="evenodd" clip-rule="evenodd" d="M31.7149 123.993C31.6758 123.993 31.6485 123.955 31.6614 123.918L68.425 20.0377C68.4332 20.0151 68.4546 20 68.4785 20H107.725C107.749 20 107.77 20.0152 107.778 20.0379L143.996 123.918C144.009 123.955 143.982 123.993 143.943 123.993H32.8196H31.7149ZM0.0566173 124.4C0.0171316 124.4 -0.0102052 124.36 0.00364521 124.324L27.3804 51.2345C27.3887 51.2123 27.4098 51.1977 27.4334 51.1977H51.2207C51.2601 51.1977 51.2873 51.2368 51.2738 51.2736L24.8013 124.363C24.7932 124.385 24.7719 124.4 24.7481 124.4H0.0566173Z" fill="#D97845"/>
</svg>
