<svg width="141" height="124" viewBox="0 0 141 124" fill="none" xmlns="http://www.w3.org/2000/svg">
<path fill-rule="evenodd" clip-rule="evenodd" d="M106.381 0.758911L106.824 39.6699L72.8858 55.9619L72.4673 19.2225L106.381 0.758911Z" fill="#73CEC0"/>
<path fill-rule="evenodd" clip-rule="evenodd" d="M140.403 62.0729L106.806 81.2899L73.1895 62.0426L106.789 44.3936L140.403 62.0729Z" fill="#73CEC0"/>
<path fill-rule="evenodd" clip-rule="evenodd" d="M67.2135 62.0729L33.6168 81.2899L0 62.0426L33.5994 44.3936L67.2135 62.0729Z" fill="#73CEC0"/>
<path fill-rule="evenodd" clip-rule="evenodd" d="M33.2393 0.599609L68.1103 17.87L67.2188 55.5057L34.2939 39.1994L33.2393 0.599609Z" fill="#73CEC0"/>
<path fill-rule="evenodd" clip-rule="evenodd" d="M107.33 122.957L72.4592 105.687L73.3508 68.0509L106.276 84.3575L107.33 122.957Z" fill="#73CEC0"/>
<path fill-rule="evenodd" clip-rule="evenodd" d="M34.4435 123.308L34.0002 84.3966L67.939 68.1046L68.3575 104.844L34.4435 123.308Z" fill="#73CEC0"/>
</svg>
