<svg width="145" height="144" viewBox="0 0 145 144" fill="none" xmlns="http://www.w3.org/2000/svg">
<path fill-rule="evenodd" clip-rule="evenodd" d="M111.414 68.6504C111.406 68.6392 111.402 68.6251 111.405 68.6113L120.591 15.0427C120.596 15.018 120.617 15 120.642 15H123.549C123.572 15 123.592 15.0145 123.598 15.0359L144.296 80.5681C144.302 80.5883 144.295 80.6108 144.278 80.6241L129.018 92.5387C128.995 92.5564 128.962 92.5519 128.945 92.5285L111.414 68.6504ZM0 104.162C0 104.185 0.0142864 104.204 0.0354068 104.211L31.493 114.497C31.5082 114.502 31.525 114.499 31.5382 114.49L101.853 65.9468C101.865 65.9386 101.873 65.9259 101.875 65.9119L109.415 15.3174C109.42 15.2863 109.396 15.2584 109.365 15.2584H47.0829C47.0675 15.2584 47.0531 15.2652 47.0433 15.277L0.0118198 72.0133C0.00417937 72.0226 0 72.0341 0 72.0462V104.162ZM44.6015 117.118L78.9682 128.375C78.9837 128.38 79.0009 128.378 79.0141 128.368L119.93 99.0189C119.953 99.0029 119.958 98.9717 119.943 98.9486L104.605 76.1238C104.589 76.0999 104.557 76.0937 104.533 76.11L44.6015 117.118Z" fill="#C5B78C"/>
</svg>
