<svg width="144" height="144" viewBox="0 0 144 144" fill="none" xmlns="http://www.w3.org/2000/svg">
<path fill-rule="evenodd" clip-rule="evenodd" d="M0.0143749 72.0232C-0.00478254 71.9906 -0.00479216 71.9501 0.0143493 71.9172L36.2236 10.0518C36.2424 10.0197 36.277 10 36.3142 10H108.083C108.12 10 108.155 10.0199 108.174 10.0523L143.986 71.9177C144.004 71.9501 144.004 71.9903 143.986 72.0227L108.174 133.819C108.155 133.851 108.12 133.871 108.083 133.871H36.3142C36.277 133.871 36.2424 133.851 36.2236 133.819L0.0143749 72.0232ZM105.361 71.9355C105.361 90.354 90.4297 105.285 72.0112 105.285C53.5927 105.285 38.6615 90.354 38.6615 71.9355C38.6615 53.5167 53.5927 38.5857 72.0112 38.5857C90.4297 38.5857 105.361 53.5167 105.361 71.9355Z" fill="#5A8EA2"/>
</svg>
